<svg width="1536" height="1449" viewBox="0 0 1536 1449" fill="none" xmlns="http://www.w3.org/2000/svg">
<path d="M-35.6565 1254.89C-142.238 1246.18 -164.882 1190.79 -162.882 1164.18L-162.882 831L1663.88 831V1164.18C1665.88 1190.79 1643.24 1246.18 1536.66 1254.89C1403.43 1265.77 1407.03 1303.87 1386.63 1334.71C1366.22 1365.55 1333.82 1396.39 1219.79 1371.9C1105.77 1347.41 994.148 1339.24 908.932 1397.3C840.758 1443.74 774.765 1449 750.5 1449C726.235 1449 660.242 1443.74 592.068 1397.3C506.851 1339.24 395.229 1347.41 281.206 1371.9C167.184 1396.39 134.777 1365.55 114.373 1334.71C93.9691 1303.87 97.57 1265.77 -35.6565 1254.89Z" fill="#2A7997" fill-opacity="0.1"/>
<path d="M1781.26 653.907C1909.78 703.636 1913.54 802.023 1899.36 845L1722.72 831.001L-150.398 831.002L-369 237.467C-359.785 193.159 -307.31 109.835 -171.136 130.998C-0.917389 157.452 11.3622 93.7661 50.259 49.9662C89.1559 6.16637 142.957 -33.6419 273.774 44.4501C404.592 122.542 539.608 173.055 670.951 106.176C776.025 52.6722 860.284 65.9906 890.415 74.0604C920.545 82.1303 1000.18 112.707 1064.41 211.556C1144.7 335.117 1286.9 358.849 1439.25 356.599C1591.61 354.349 1618.29 415.713 1630.06 473.084C1641.84 530.456 1620.62 591.746 1781.26 653.907Z" fill="#2A7997" fill-opacity="0.1"/>
</svg>
