<svg width="1536" height="845" viewBox="0 0 1536 845" fill="none" xmlns="http://www.w3.org/2000/svg">
<path d="M1781.26 653.907C1909.78 703.636 1913.54 802.023 1899.36 845L1722.72 831.001L-150.398 831.002L-369 237.467C-359.785 193.159 -307.31 109.835 -171.136 130.998C-0.917399 157.452 11.3622 93.7661 50.259 49.9662C89.1559 6.16637 142.957 -33.6419 273.774 44.4501C404.592 122.542 539.608 173.055 670.951 106.176C776.025 52.6722 860.284 65.9906 890.415 74.0604C920.545 82.1303 1000.18 112.707 1064.41 211.556C1144.7 335.117 1286.9 358.849 1439.25 356.599C1591.61 354.349 1618.29 415.713 1630.06 473.084C1641.84 530.456 1620.62 591.746 1781.26 653.907Z" fill="#2A7997" fill-opacity="0.1"/>
</svg>
