<svg width="1536" height="618" viewBox="0 0 1536 618" fill="none" xmlns="http://www.w3.org/2000/svg">
<path d="M-35.6565 423.888C-142.238 415.18 -164.882 359.788 -162.882 333.181L-162.882 0L1663.88 0V333.181C1665.88 359.788 1643.24 415.18 1536.66 423.888C1403.43 434.772 1407.03 472.869 1386.63 503.71C1366.22 534.55 1333.82 565.39 1219.79 540.899C1105.77 516.409 994.148 508.245 908.932 566.297C840.758 612.739 774.765 618 750.5 618C726.235 618 660.242 612.739 592.068 566.297C506.851 508.245 395.229 516.409 281.206 540.899C167.184 565.39 134.777 534.55 114.373 503.71C93.9691 472.869 97.57 434.772 -35.6565 423.888Z" fill="#2A7997" fill-opacity="0.1"/>
</svg>
